ffmpeg started on 2026-04-01 at 11:59:36
Report written to "D:\Convert\FFMetrics\reports\ssim_report-6.txt"
Log level: 32
Command line:
ffmpeg -hide_banner -nostdin -r 24000/1001 -i "F:\\Convert\\files\\[DC] Make Heroine ga Oosugiru - 07_Telegram_HEVC(278).mkv" -r 24000/1001 -i "F:\\Convert\\files\\[DC] Make Heroine ga Oosugiru - 07_Telegram.mp4" -lavfi "[0:v]settb=AVTB,setpts=PTS-STARTPTS,format=pix_fmts=yuv420p10le,fps=24000/1001,scale=1920:1080:flags=lanczos:param0=3:out_range=limited:out_color_matrix=bt709:out_chroma_loc=left,setsar=1/1,setdar=(1920/1080)*(1/1),colorspace=format=yuv420p10:range=tv:primaries=bt709:trc=bt709:space=bt709:fast=0[main];[1:v]settb=AVTB,setpts=PTS-STARTPTS,format=pix_fmts=yuv420p,fps=24000/1001,scale=1920:1080:flags=lanczos:param0=3:out_range=limited:out_color_matrix=bt709:out_chroma_loc=left,setsar=1/1,setdar=(1920/1080)*(1/1),colorspace=format=yuv420p:range=tv:primaries=bt709:trc=bt709:space=bt709:fast=0[ref];[main][ref]ssim=eof_action=endall:stats_file='D\\:/Convert/FFMetrics/logs/ssim_logfile-6.txt'" -f null -
Input #0, matroska,webm, from 'F:\Convert\files\[DC] Make Heroine ga Oosugiru - 07_Telegram_HEVC(278).mkv':
  Metadata:
    COMPATIBLE_BRANDS: isomiso2avc1mp41
    MAJOR_BRAND     : isom
    MINOR_VERSION   : 512
    ENCODER         : Lavf61.7.100
  Duration: 00:24:06.79, start: -0.021000, bitrate: 966 kb/s
  Stream #0:0: Video: hevc (Main 10), yuv420p10le(tv, bt709, progressive), 1920x1080 [SAR 1:1 DAR 16:9], 23.98 fps, 23.98 tbr, 1k tbn (default)
      Metadata:
        HANDLER_NAME    : VideoHandler
        VENDOR_ID       : [0][0][0][0]
        ENCODER         : Lavc61.19.100 libx265
        BPS             : 769716
        DURATION        : 00:24:06.569708333
        NUMBER_OF_FRAMES: 34683
        NUMBER_OF_BYTES : 139180952
        _STATISTICS_WRITING_APP: mkvpropedit v94.0 ('Initiate') 64-bit
        _STATISTICS_WRITING_DATE_UTC: 2026-03-30 13:35:53
        _STATISTICS_TAGS: BPS DURATION NUMBER_OF_FRAMES NUMBER_OF_BYTES
  Stream #0:1: Audio: aac (LC), 48000 Hz, stereo, fltp (default)
      Metadata:
        HANDLER_NAME    : SoundHandler
        VENDOR_ID       : [0][0][0][0]
        ENCODER         : Lavc61.19.100 aac
        BPS             : 193194
        DURATION        : 00:24:06.784000000
        NUMBER_OF_FRAMES: 67819
        NUMBER_OF_BYTES : 34938755
        _STATISTICS_WRITING_APP: mkvpropedit v94.0 ('Initiate') 64-bit
        _STATISTICS_WRITING_DATE_UTC: 2026-03-30 13:35:53
        _STATISTICS_TAGS: BPS DURATION NUMBER_OF_FRAMES NUMBER_OF_BYTES
Input #1, mov,mp4,m4a,3gp,3g2,mj2, from 'F:\Convert\files\[DC] Make Heroine ga Oosugiru - 07_Telegram.mp4':
  Metadata:
    major_brand     : isom
    minor_version   : 512
    compatible_brands: isomiso2avc1mp41
    encoder         : Lavf60.16.100
  Duration: 00:24:06.74, start: 0.000000, bitrate: 3764 kb/s
  Stream #1:0[0x1](und): Video: h264 (High) (avc1 / 0x31637661), yuv420p(tv, bt709, progressive), 1920x1080 [SAR 1:1 DAR 16:9], 3616 kb/s, 23.98 fps, 23.98 tbr, 24k tbn (default)
      Metadata:
        handler_name    : VideoHandler
        vendor_id       : [0][0][0][0]
        encoder         : Lavc60.31.102 h264_qsv
  Stream #1:1[0x2](und): Audio: aac (HE-AACv2) (mp4a / 0x6134706D), 48000 Hz, stereo, fltp, 144 kb/s (default)
      Metadata:
        handler_name    : SoundHandler
        vendor_id       : [0][0][0][0]
Stream mapping:
  Stream #0:0 (hevc) -> settb:default
  Stream #1:0 (h264) -> settb:default
  ssim:default -> Stream #0:0 (wrapped_avframe)
  Stream #0:1 -> #0:1 (aac (native) -> pcm_s16le (native))
Output #0, null, to 'pipe:':
  Metadata:
    COMPATIBLE_BRANDS: isomiso2avc1mp41
    MAJOR_BRAND     : isom
    MINOR_VERSION   : 512
    encoder         : Lavf61.7.100
  Stream #0:0: Video: wrapped_avframe, yuv420p10le(tv, bt709, progressive), 1920x1080 [SAR 1:1 DAR 16:9], q=2-31, 200 kb/s, 23.98 fps, 23.98 tbn
      Metadata:
        encoder         : Lavc61.19.100 wrapped_avframe
  Stream #0:1: Audio: pcm_s16le, 48000 Hz, stereo, s16, 1536 kb/s (default)
      Metadata:
        HANDLER_NAME    : SoundHandler
        VENDOR_ID       : [0][0][0][0]
        _STATISTICS_TAGS: BPS DURATION NUMBER_OF_FRAMES NUMBER_OF_BYTES
        BPS             : 193194
        DURATION        : 00:24:06.784000000
        NUMBER_OF_FRAMES: 67819
        NUMBER_OF_BYTES : 34938755
        _STATISTICS_WRITING_APP: mkvpropedit v94.0 ('Initiate') 64-bit
        _STATISTICS_WRITING_DATE_UTC: 2026-03-30 13:35:53
        encoder         : Lavc61.19.100 pcm_s16le
frame=  121 fps=0.0 q=-0.0 size=N/A time=00:00:05.04 bitrate=N/A speed= 9.6x    frame=  307 fps=296 q=-0.0 size=N/A time=00:00:12.80 bitrate=N/A speed=12.3x    frame=  504 fps=325 q=-0.0 size=N/A time=00:00:21.02 bitrate=N/A speed=13.6x    frame=  698 fps=339 q=-0.0 size=N/A time=00:00:29.11 bitrate=N/A speed=14.1x    frame=  886 fps=342 q=-0.0 size=N/A time=00:00:36.95 bitrate=N/A speed=14.3x    frame= 1026 fps=331 q=-0.0 size=N/A time=00:00:42.79 bitrate=N/A speed=13.8x    frame= 1191 fps=330 q=-0.0 size=N/A time=00:00:49.67 bitrate=N/A speed=13.8x    frame= 1350 fps=327 q=-0.0 size=N/A time=00:00:56.30 bitrate=N/A speed=13.7x    frame= 1512 fps=325 q=-0.0 size=N/A time=00:01:03.06 bitrate=N/A speed=13.6x    frame= 1658 fps=321 q=-0.0 size=N/A time=00:01:09.15 bitrate=N/A speed=13.4x    frame= 1818 fps=320 q=-0.0 size=N/A time=00:01:15.82 bitrate=N/A speed=13.4x    frame= 1976 fps=319 q=-0.0 size=N/A time=00:01:22.41 bitrate=N/A speed=13.3x    frame= 2095 fps=312 q=-0.0 size=N/A time=00:01:27.37 bitrate=N/A speed=  13x    frame= 2246 fps=311 q=-0.0 size=N/A time=00:01:33.67 bitrate=N/A speed=  13x    frame= 2394 fps=309 q=-0.0 size=N/A time=00:01:39.84 bitrate=N/A speed=12.9x    frame= 2526 fps=306 q=-0.0 size=N/A time=00:01:45.35 bitrate=N/A speed=12.8x    frame= 2687 fps=306 q=-0.0 size=N/A time=00:01:52.07 bitrate=N/A speed=12.8x    frame= 2862 fps=308 q=-0.0 size=N/A time=00:01:59.36 bitrate=N/A speed=12.9x    frame= 3033 fps=310 q=-0.0 size=N/A time=00:02:06.50 bitrate=N/A speed=12.9x    frame= 3230 fps=313 q=-0.0 size=N/A time=00:02:14.71 bitrate=N/A speed=  13x    frame= 3422 fps=316 q=-0.0 size=N/A time=00:02:22.72 bitrate=N/A speed=13.2x    frame= 3608 fps=318 q=-0.0 size=N/A time=00:02:30.48 bitrate=N/A speed=13.3x    frame= 3796 fps=320 q=-0.0 size=N/A time=00:02:38.32 bitrate=N/A speed=13.4x    frame= 3988 fps=322 q=-0.0 size=N/A time=00:02:46.33 bitrate=N/A speed=13.4x    frame= 4172 fps=324 q=-0.0 size=N/A time=00:02:54.00 bitrate=N/A speed=13.5x    frame= 4349 fps=324 q=-0.0 size=N/A time=00:03:01.38 bitrate=N/A speed=13.5x    frame= 4534 fps=326 q=-0.0 size=N/A time=00:03:09.10 bitrate=N/A speed=13.6x    frame= 4719 fps=327 q=-0.0 size=N/A time=00:03:16.82 bitrate=N/A speed=13.6x    frame= 4904 fps=328 q=-0.0 size=N/A time=00:03:24.53 bitrate=N/A speed=13.7x    frame= 5092 fps=329 q=-0.0 size=N/A time=00:03:32.37 bitrate=N/A speed=13.7x    frame= 5276 fps=330 q=-0.0 size=N/A time=00:03:40.05 bitrate=N/A speed=13.8x    frame= 5458 fps=331 q=-0.0 size=N/A time=00:03:47.64 bitrate=N/A speed=13.8x    frame= 5635 fps=331 q=-0.0 size=N/A time=00:03:55.02 bitrate=N/A speed=13.8x    frame= 5820 fps=332 q=-0.0 size=N/A time=00:04:02.74 bitrate=N/A speed=13.8x    frame= 6005 fps=333 q=-0.0 size=N/A time=00:04:10.45 bitrate=N/A speed=13.9x    frame= 6197 fps=334 q=-0.0 size=N/A time=00:04:18.46 bitrate=N/A speed=13.9x    frame= 6387 fps=335 q=-0.0 size=N/A time=00:04:26.39 bitrate=N/A speed=  14x    frame= 6574 fps=336 q=-0.0 size=N/A time=00:04:34.19 bitrate=N/A speed=  14x    frame= 6758 fps=336 q=-0.0 size=N/A time=00:04:41.86 bitrate=N/A speed=  14x    frame= 6948 fps=337 q=-0.0 size=N/A time=00:04:49.78 bitrate=N/A speed=  14x    frame= 7130 fps=337 q=-0.0 size=N/A time=00:04:57.38 bitrate=N/A speed=14.1x    frame= 7318 fps=338 q=-0.0 size=N/A time=00:05:05.22 bitrate=N/A speed=14.1x    frame= 7495 fps=338 q=-0.0 size=N/A time=00:05:12.60 bitrate=N/A speed=14.1x    frame= 7673 fps=338 q=-0.0 size=N/A time=00:05:20.02 bitrate=N/A speed=14.1x    frame= 7858 fps=339 q=-0.0 size=N/A time=00:05:27.74 bitrate=N/A speed=14.1x    frame= 8036 fps=339 q=-0.0 size=N/A time=00:05:35.16 bitrate=N/A speed=14.1x    frame= 8211 fps=339 q=-0.0 size=N/A time=00:05:42.46 bitrate=N/A speed=14.1x    frame= 8392 fps=339 q=-0.0 size=N/A time=00:05:50.01 bitrate=N/A speed=14.1x    frame= 8580 fps=339 q=-0.0 size=N/A time=00:05:57.85 bitrate=N/A speed=14.2x    frame= 8764 fps=340 q=-0.0 size=N/A time=00:06:05.53 bitrate=N/A speed=14.2x    frame= 8945 fps=340 q=-0.0 size=N/A time=00:06:13.08 bitrate=N/A speed=14.2x    frame= 9133 fps=341 q=-0.0 size=N/A time=00:06:20.92 bitrate=N/A speed=14.2x    frame= 9326 fps=341 q=-0.0 size=N/A time=00:06:28.97 bitrate=N/A speed=14.2x    frame= 9507 fps=341 q=-0.0 size=N/A time=00:06:36.52 bitrate=N/A speed=14.2x    frame= 9693 fps=342 q=-0.0 size=N/A time=00:06:44.27 bitrate=N/A speed=14.3x    frame= 9884 fps=342 q=-0.0 size=N/A time=00:06:52.24 bitrate=N/A speed=14.3x    frame=10069 fps=342 q=-0.0 size=N/A time=00:06:59.96 bitrate=N/A speed=14.3x    frame=10256 fps=343 q=-0.0 size=N/A time=00:07:07.76 bitrate=N/A speed=14.3x    frame=10442 fps=343 q=-0.0 size=N/A time=00:07:15.51 bitrate=N/A speed=14.3x    frame=10619 fps=343 q=-0.0 size=N/A time=00:07:22.90 bitrate=N/A speed=14.3x    frame=10813 fps=344 q=-0.0 size=N/A time=00:07:30.99 bitrate=N/A speed=14.3x    frame=10993 fps=344 q=-0.0 size=N/A time=00:07:38.49 bitrate=N/A speed=14.3x    frame=11171 fps=344 q=-0.0 size=N/A time=00:07:45.92 bitrate=N/A speed=14.3x    frame=11363 fps=344 q=-0.0 size=N/A time=00:07:53.93 bitrate=N/A speed=14.3x    frame=11549 fps=344 q=-0.0 size=N/A time=00:08:01.68 bitrate=N/A speed=14.4x    frame=11732 fps=344 q=-0.0 size=N/A time=00:08:09.32 bitrate=N/A speed=14.4x    frame=11918 fps=345 q=-0.0 size=N/A time=00:08:17.07 bitrate=N/A speed=14.4x    frame=12111 fps=345 q=-0.0 size=N/A time=00:08:25.12 bitrate=N/A speed=14.4x    frame=12301 fps=345 q=-0.0 size=N/A time=00:08:33.05 bitrate=N/A speed=14.4x    frame=12480 fps=345 q=-0.0 size=N/A time=00:08:40.52 bitrate=N/A speed=14.4x    frame=12666 fps=346 q=-0.0 size=N/A time=00:08:48.27 bitrate=N/A speed=14.4x    frame=12854 fps=346 q=-0.0 size=N/A time=00:08:56.11 bitrate=N/A speed=14.4x    frame=13034 fps=346 q=-0.0 size=N/A time=00:09:03.62 bitrate=N/A speed=14.4x    frame=13213 fps=346 q=-0.0 size=N/A time=00:09:11.09 bitrate=N/A speed=14.4x    frame=13390 fps=346 q=-0.0 size=N/A time=00:09:18.47 bitrate=N/A speed=14.4x    frame=13571 fps=346 q=-0.0 size=N/A time=00:09:26.02 bitrate=N/A speed=14.4x    frame=13756 fps=346 q=-0.0 size=N/A time=00:09:33.73 bitrate=N/A speed=14.4x    frame=13941 fps=346 q=-0.0 size=N/A time=00:09:41.45 bitrate=N/A speed=14.4x    frame=14111 fps=346 q=-0.0 size=N/A time=00:09:48.54 bitrate=N/A speed=14.4x    frame=14297 fps=346 q=-0.0 size=N/A time=00:09:56.30 bitrate=N/A speed=14.4x    frame=14478 fps=346 q=-0.0 size=N/A time=00:10:03.85 bitrate=N/A speed=14.4x    frame=14660 fps=346 q=-0.0 size=N/A time=00:10:11.44 bitrate=N/A speed=14.5x    frame=14846 fps=347 q=-0.0 size=N/A time=00:10:19.20 bitrate=N/A speed=14.5x    frame=15030 fps=347 q=-0.0 size=N/A time=00:10:26.87 bitrate=N/A speed=14.5x    frame=15185 fps=346 q=-0.0 size=N/A time=00:10:33.34 bitrate=N/A speed=14.4x    frame=15359 fps=346 q=-0.0 size=N/A time=00:10:40.59 bitrate=N/A speed=14.4x    frame=15551 fps=346 q=-0.0 size=N/A time=00:10:48.60 bitrate=N/A speed=14.4x    frame=15733 fps=346 q=-0.0 size=N/A time=00:10:56.19 bitrate=N/A speed=14.4x    frame=15920 fps=347 q=-0.0 size=N/A time=00:11:03.99 bitrate=N/A speed=14.5x    frame=16105 fps=347 q=-0.0 size=N/A time=00:11:11.71 bitrate=N/A speed=14.5x    frame=16297 fps=347 q=-0.0 size=N/A time=00:11:19.72 bitrate=N/A speed=14.5x    frame=16485 fps=347 q=-0.0 size=N/A time=00:11:27.56 bitrate=N/A speed=14.5x    frame=16666 fps=347 q=-0.0 size=N/A time=00:11:35.11 bitrate=N/A speed=14.5x    frame=16853 fps=347 q=-0.0 size=N/A time=00:11:42.91 bitrate=N/A speed=14.5x    frame=17048 fps=348 q=-0.0 size=N/A time=00:11:51.04 bitrate=N/A speed=14.5x    frame=17232 fps=348 q=-0.0 size=N/A time=00:11:58.71 bitrate=N/A speed=14.5x    frame=17420 fps=348 q=-0.0 size=N/A time=00:12:06.55 bitrate=N/A speed=14.5x    frame=17600 fps=348 q=-0.0 size=N/A time=00:12:14.06 bitrate=N/A speed=14.5x    frame=17785 fps=348 q=-0.0 size=N/A time=00:12:21.78 bitrate=N/A speed=14.5x    frame=17977 fps=348 q=-0.0 size=N/A time=00:12:29.79 bitrate=N/A speed=14.5x    frame=18166 fps=349 q=-0.0 size=N/A time=00:12:37.67 bitrate=N/A speed=14.5x    frame=18334 fps=348 q=-0.0 size=N/A time=00:12:44.68 bitrate=N/A speed=14.5x    frame=18514 fps=348 q=-0.0 size=N/A time=00:12:52.18 bitrate=N/A speed=14.5x    frame=18699 fps=348 q=-0.0 size=N/A time=00:12:59.90 bitrate=N/A speed=14.5x    frame=18890 fps=349 q=-0.0 size=N/A time=00:13:07.87 bitrate=N/A speed=14.5x    frame=19082 fps=349 q=-0.0 size=N/A time=00:13:15.87 bitrate=N/A speed=14.5x    frame=19277 fps=349 q=-0.0 size=N/A time=00:13:24.01 bitrate=N/A speed=14.6x    frame=19461 fps=349 q=-0.0 size=N/A time=00:13:31.68 bitrate=N/A speed=14.6x    frame=19643 fps=349 q=-0.0 size=N/A time=00:13:39.27 bitrate=N/A speed=14.6x    frame=19838 fps=349 q=-0.0 size=N/A time=00:13:47.40 bitrate=N/A speed=14.6x    frame=20028 fps=349 q=-0.0 size=N/A time=00:13:55.33 bitrate=N/A speed=14.6x    frame=20211 fps=349 q=-0.0 size=N/A time=00:14:02.96 bitrate=N/A speed=14.6x    frame=20397 fps=350 q=-0.0 size=N/A time=00:14:10.72 bitrate=N/A speed=14.6x    frame=20573 fps=350 q=-0.0 size=N/A time=00:14:18.06 bitrate=N/A speed=14.6x    frame=20761 fps=350 q=-0.0 size=N/A time=00:14:25.90 bitrate=N/A speed=14.6x    frame=20950 fps=350 q=-0.0 size=N/A time=00:14:33.78 bitrate=N/A speed=14.6x    frame=21134 fps=350 q=-0.0 size=N/A time=00:14:41.46 bitrate=N/A speed=14.6x    frame=21324 fps=350 q=-0.0 size=N/A time=00:14:49.38 bitrate=N/A speed=14.6x    frame=21510 fps=350 q=-0.0 size=N/A time=00:14:57.14 bitrate=N/A speed=14.6x    frame=21697 fps=350 q=-0.0 size=N/A time=00:15:04.94 bitrate=N/A speed=14.6x    frame=21884 fps=350 q=-0.0 size=N/A time=00:15:12.74 bitrate=N/A speed=14.6x    frame=22067 fps=350 q=-0.0 size=N/A time=00:15:20.37 bitrate=N/A speed=14.6x    frame=22255 fps=350 q=-0.0 size=N/A time=00:15:28.21 bitrate=N/A speed=14.6x    frame=22439 fps=351 q=-0.0 size=N/A time=00:15:35.89 bitrate=N/A speed=14.6x    frame=22625 fps=351 q=-0.0 size=N/A time=00:15:43.65 bitrate=N/A speed=14.6x    frame=22805 fps=351 q=-0.0 size=N/A time=00:15:51.15 bitrate=N/A speed=14.6x    frame=22976 fps=350 q=-0.0 size=N/A time=00:15:58.29 bitrate=N/A speed=14.6x    frame=23153 fps=350 q=-0.0 size=N/A time=00:16:05.67 bitrate=N/A speed=14.6x    frame=23332 fps=350 q=-0.0 size=N/A time=00:16:13.13 bitrate=N/A speed=14.6x    frame=23511 fps=350 q=-0.0 size=N/A time=00:16:20.60 bitrate=N/A speed=14.6x    frame=23695 fps=350 q=-0.0 size=N/A time=00:16:28.27 bitrate=N/A speed=14.6x    frame=23882 fps=350 q=-0.0 size=N/A time=00:16:36.07 bitrate=N/A speed=14.6x    frame=24062 fps=350 q=-0.0 size=N/A time=00:16:43.58 bitrate=N/A speed=14.6x    frame=24238 fps=350 q=-0.0 size=N/A time=00:16:50.92 bitrate=N/A speed=14.6x    frame=24412 fps=350 q=-0.0 size=N/A time=00:16:58.18 bitrate=N/A speed=14.6x    frame=24604 fps=350 q=-0.0 size=N/A time=00:17:06.19 bitrate=N/A speed=14.6x    frame=24798 fps=351 q=-0.0 size=N/A time=00:17:14.28 bitrate=N/A speed=14.6x    frame=24996 fps=351 q=-0.0 size=N/A time=00:17:22.54 bitrate=N/A speed=14.6x    frame=25189 fps=351 q=-0.0 size=N/A time=00:17:30.59 bitrate=N/A speed=14.6x    frame=25387 fps=351 q=-0.0 size=N/A time=00:17:38.84 bitrate=N/A speed=14.6x    frame=25582 fps=351 q=-0.0 size=N/A time=00:17:46.98 bitrate=N/A speed=14.7x    frame=25775 fps=351 q=-0.0 size=N/A time=00:17:55.03 bitrate=N/A speed=14.7x    frame=25973 fps=352 q=-0.0 size=N/A time=00:18:03.29 bitrate=N/A speed=14.7x    frame=26168 fps=352 q=-0.0 size=N/A time=00:18:11.42 bitrate=N/A speed=14.7x    frame=26360 fps=352 q=-0.0 size=N/A time=00:18:19.43 bitrate=N/A speed=14.7x    frame=26563 fps=352 q=-0.0 size=N/A time=00:18:27.89 bitrate=N/A speed=14.7x    frame=26757 fps=352 q=-0.0 size=N/A time=00:18:35.98 bitrate=N/A speed=14.7x    frame=26940 fps=352 q=-0.0 size=N/A time=00:18:43.62 bitrate=N/A speed=14.7x    frame=27119 fps=352 q=-0.0 size=N/A time=00:18:51.08 bitrate=N/A speed=14.7x    frame=27310 fps=352 q=-0.0 size=N/A time=00:18:59.05 bitrate=N/A speed=14.7x    frame=27491 fps=353 q=-0.0 size=N/A time=00:19:06.60 bitrate=N/A speed=14.7x    frame=27681 fps=353 q=-0.0 size=N/A time=00:19:14.52 bitrate=N/A speed=14.7x    frame=27874 fps=353 q=-0.0 size=N/A time=00:19:22.57 bitrate=N/A speed=14.7x    frame=28059 fps=353 q=-0.0 size=N/A time=00:19:30.29 bitrate=N/A speed=14.7x    frame=28250 fps=353 q=-0.0 size=N/A time=00:19:38.26 bitrate=N/A speed=14.7x    frame=28437 fps=353 q=-0.0 size=N/A time=00:19:46.05 bitrate=N/A speed=14.7x    frame=28631 fps=353 q=-0.0 size=N/A time=00:19:54.15 bitrate=N/A speed=14.7x    frame=28810 fps=353 q=-0.0 size=N/A time=00:20:01.61 bitrate=N/A speed=14.7x    frame=28981 fps=353 q=-0.0 size=N/A time=00:20:08.74 bitrate=N/A speed=14.7x    frame=29158 fps=353 q=-0.0 size=N/A time=00:20:16.13 bitrate=N/A speed=14.7x    frame=29341 fps=353 q=-0.0 size=N/A time=00:20:23.76 bitrate=N/A speed=14.7x    frame=29515 fps=353 q=-0.0 size=N/A time=00:20:31.02 bitrate=N/A speed=14.7x    frame=29692 fps=353 q=-0.0 size=N/A time=00:20:38.40 bitrate=N/A speed=14.7x    frame=29871 fps=353 q=-0.0 size=N/A time=00:20:45.86 bitrate=N/A speed=14.7x    frame=30029 fps=352 q=-0.0 size=N/A time=00:20:52.45 bitrate=N/A speed=14.7x    frame=30210 fps=352 q=-0.0 size=N/A time=00:21:00.00 bitrate=N/A speed=14.7x    frame=30397 fps=352 q=-0.0 size=N/A time=00:21:07.80 bitrate=N/A speed=14.7x    frame=30587 fps=353 q=-0.0 size=N/A time=00:21:15.73 bitrate=N/A speed=14.7x    frame=30778 fps=353 q=-0.0 size=N/A time=00:21:23.69 bitrate=N/A speed=14.7x    frame=30969 fps=353 q=-0.0 size=N/A time=00:21:31.66 bitrate=N/A speed=14.7x    frame=31158 fps=353 q=-0.0 size=N/A time=00:21:39.54 bitrate=N/A speed=14.7x    frame=31339 fps=353 q=-0.0 size=N/A time=00:21:47.09 bitrate=N/A speed=14.7x    frame=31531 fps=353 q=-0.0 size=N/A time=00:21:55.10 bitrate=N/A speed=14.7x    frame=31715 fps=353 q=-0.0 size=N/A time=00:22:02.77 bitrate=N/A speed=14.7x    frame=31894 fps=353 q=-0.0 size=N/A time=00:22:10.24 bitrate=N/A speed=14.7x    frame=32074 fps=353 q=-0.0 size=N/A time=00:22:17.75 bitrate=N/A speed=14.7x    frame=32275 fps=353 q=-0.0 size=N/A time=00:22:26.13 bitrate=N/A speed=14.7x    frame=32465 fps=353 q=-0.0 size=N/A time=00:22:34.06 bitrate=N/A speed=14.7x    frame=32641 fps=353 q=-0.0 size=N/A time=00:22:41.40 bitrate=N/A speed=14.7x    frame=32793 fps=353 q=-0.0 size=N/A time=00:22:47.74 bitrate=N/A speed=14.7x    frame=32963 fps=353 q=-0.0 size=N/A time=00:22:54.83 bitrate=N/A speed=14.7x    frame=33146 fps=353 q=-0.0 size=N/A time=00:23:02.46 bitrate=N/A speed=14.7x    frame=33331 fps=353 q=-0.0 size=N/A time=00:23:10.18 bitrate=N/A speed=14.7x    frame=33494 fps=353 q=-0.0 size=N/A time=00:23:16.97 bitrate=N/A speed=14.7x    frame=33647 fps=352 q=-0.0 size=N/A time=00:23:23.36 bitrate=N/A speed=14.7x    frame=33782 fps=352 q=-0.0 size=N/A time=00:23:28.99 bitrate=N/A speed=14.7x    frame=33907 fps=351 q=-0.0 size=N/A time=00:23:34.20 bitrate=N/A speed=14.6x    frame=34073 fps=351 q=-0.0 size=N/A time=00:23:41.12 bitrate=N/A speed=14.6x    frame=34233 fps=351 q=-0.0 size=N/A time=00:23:47.80 bitrate=N/A speed=14.6x    frame=34364 fps=350 q=-0.0 size=N/A time=00:23:53.26 bitrate=N/A speed=14.6x    frame=34495 fps=350 q=-0.0 size=N/A time=00:23:58.72 bitrate=N/A speed=14.6x    frame=34666 fps=350 q=-0.0 size=N/A time=00:24:05.86 bitrate=N/A speed=14.6x    [Parsed_ssim_16 @ 000001af4ea53780] SSIM Y:0.994031 (22.241269) U:0.993958 (22.188409) V:0.993562 (21.912237) All:0.993941 (22.175930)
[out#0/null @ 000001af4769dec0] video:14903KiB audio:271276KiB subtitle:0KiB other streams:0KiB global headers:0KiB muxing overhead: unknown
frame=34683 fps=350 q=-0.0 Lsize=N/A time=00:24:06.57 bitrate=N/A speed=14.6x    
